/* XPM */
static char *image[] = {
"16 8 2 1",
"0 c #ffffff",
"1 c #08c020",
"1110000000000000",
"1110000000000000",
"1110011000001100",
"1110110000000000",
"1111100000011100",
"1110110000001100",
"1110011000001100",
"1110001100111111"};
