/* XPM */
static char *image[] = {
"8 8 3 1",
"0 c #ffffff",
"1 c #08c020",
"6 c #000000",
"16610000",
"16610000",
"16610000",
"16611661",
"16616610",
"16666100",
"16616610",
"16611661"};
