/* XPM */
static char * links_xpm[] = {
"64 64 156 2",
"  	c None",
". 	c #FF0000",
"+ 	c #00FF00",
"@ 	c #FD0000",
"# 	c #870000",
"$ 	c #7B0000",
"% 	c #680000",
"& 	c #070000",
"* 	c #000000",
"= 	c #FB0000",
"- 	c #170000",
"; 	c #FC0000",
"> 	c #590000",
", 	c #580000",
"' 	c #530000",
") 	c #480000",
"! 	c #330000",
"~ 	c #160000",
"{ 	c #030000",
"] 	c #090000",
"^ 	c #200000",
"/ 	c #3D0000",
"( 	c #4D0000",
"_ 	c #450000",
": 	c #040000",
"< 	c #FE0000",
"[ 	c #E90000",
"} 	c #750000",
"| 	c #150000",
"1 	c #BA0000",
"2 	c #F90000",
"3 	c #EF0000",
"4 	c #130000",
"5 	c #660000",
"6 	c #210000",
"7 	c #830000",
"8 	c #220000",
"9 	c #850000",
"0 	c #1A0000",
"a 	c #710000",
"b 	c #010000",
"c 	c #000001",
"d 	c #0000FF",
"e 	c #00001A",
"f 	c #000071",
"g 	c #FFFFFF",
"h 	c #000022",
"i 	c #000085",
"j 	c #FEFEFE",
"k 	c #C3C3C3",
"l 	c #ACACAC",
"m 	c #D1D1D1",
"n 	c #F2F2F2",
"o 	c #383838",
"p 	c #040404",
"q 	c #808080",
"r 	c #DDDDDD",
"s 	c #151515",
"t 	c #939393",
"u 	c #B4B4B4",
"v 	c #010101",
"w 	c #A9A9A9",
"x 	c #717171",
"y 	c #BFBFBF",
"z 	c #F1F1F1",
"A 	c #323232",
"B 	c #D3D3D3",
"C 	c #C8C8C8",
"D 	c #050505",
"E 	c #E5E5E5",
"F 	c #FDFDFD",
"G 	c #6E6E6E",
"H 	c #131313",
"I 	c #ECECEC",
"J 	c #E8E8E8",
"K 	c #171717",
"L 	c #242424",
"M 	c #F0F0F0",
"N 	c #848484",
"O 	c #363636",
"P 	c #F5F5F5",
"Q 	c #E4E4E4",
"R 	c #0E0E0E",
"S 	c #474747",
"T 	c #F9F9F9",
"U 	c #F7F7F7",
"V 	c #515151",
"W 	c #595959",
"X 	c #FCFCFC",
"Y 	c #F4F4F4",
"Z 	c #727272",
"` 	c #030303",
" .	c #6D6D6D",
"..	c #0000FD",
"+.	c #00001E",
"@.	c #000081",
"#.	c #D4D4D4",
"$.	c #565656",
"%.	c #828282",
"&.	c #0000DA",
"*.	c #00000C",
"=.	c #00004C",
"-.	c #0000F9",
";.	c #C5C5C5",
">.	c #6F6F6F",
",.	c #1A1A1A",
"'.	c #979797",
").	c #0000EE",
"!.	c #0000ED",
"~.	c #0000EC",
"{.	c #0000E8",
"].	c #0000E0",
"^.	c #0000CE",
"/.	c #0000A5",
"(.	c #000038",
"_.	c #000004",
":.	c #00004A",
"<.	c #00009F",
"[.	c #0000CB",
"}.	c #0000E2",
"|.	c #0000E6",
"1.	c #DFDFDF",
"2.	c #DCDCDC",
"3.	c #CCCCCC",
"4.	c #B5B5B5",
"5.	c #636363",
"6.	c #2D2D2D",
"7.	c #0D0D0D",
"8.	c #ADADAD",
"9.	c #0000FB",
"0.	c #000028",
"a.	c #000013",
"b.	c #000012",
"c.	c #000010",
"d.	c #000003",
"e.	c #00000B",
"f.	c #000011",
"g.	c #00000E",
"h.	c #0F0F0F",
"i.	c #0B0B0B",
"j.	c #060606",
"k.	c #C2C2C2",
"l.	c #000017",
"m.	c #000020",
"n.	c #00000A",
"o.	c #000008",
"p.	c #080808",
"q.	c #0A0A0A",
"r.	c #191919",
"s.	c #E0E0E0",
"t.	c #0000FE",
"u.	c #0000C9",
"v.	c #0000BA",
"w.	c #BABABA",
"x.	c #C9C9C9",
"y.	c #CDCDCD",
"                                                                                                                                ",
"                                                                                                                                ",
"    . . . . . . . . . . . . . . . . . . . . . . . . . . . .         + + + + + + + + + + + + + + + + + + + + + + + + + + + +     ",
"    . . . . . . . . . . . . . . . . . . . . . . . . . . . .         + + + + + + + + + + + + + + + + + + + + + + + + + + + +     ",
"    . . . . . . . . . . . . . . . . . . . . . . . . . . . .         + + + + + + + + + + + + + + + + + + + + + + + + + + + +     ",
"    . . . . . . . . . . . . . . . . . . . . . . . . . . . .         + + + + + + + + + + + + + + + + + + + + + + + + + + + +     ",
"    . . . . . . . . . . . . . . . . . . . . . . . . . . . .         + + + + + + + + + + + + + + + + + + + + + + + + + + + +     ",
"    . . . . . @ # $ $ $ $ $ $ $ $ $ $ $ $ $ $ $ $ $ $ $ $ % & *     + + + + + + + + + + + + + + + + + + + + + + + + + + + +     ",
"    . . . . . = - * * * * * * * * * * * * * * * * * * * * * * * *   + + + + + + + + + + + + + + + + + + + + + + + + + + + +     ",
"    . . . . . = - * * * * * * * * * * * * * * * * * * * * * * * *   + + + + + + + + + + + + + + + + + + + + + + + + + + + +     ",
"    . . . . . ; % > , ' ) ! ~ { * * * * * * * * * ] ^ / ( _ : *     + + + + + + + + + + + + + + + + + + + + + + + + + + + +     ",
"    . . . . . . . . . . . < [ } { * * * * * * * | 1 2 . . .         + + + + + + + + + + + + + + + + + + + + + + + + + + + +     ",
"    . . . . . . . . . . . . . 3 4 * * * * * * * 5 . . . . .         + + + + + + + + + + + + + + + + + + + + + + + + + + + +     ",
"    . . . . . . . . . . . . . < 6 * * * * * * * 7 . . . . .         + + + + + + + + + + + + + + + + + + + + + + + + + + + +     ",
"    . . . . . . . . . . . . . . 8 * * * * * * * 9 . . . . .         + + + + + + + + + + + + + + + + + + + + + + + + + + + +     ",
"    . . . . . . . . . . . . . . 8 * * * * * * * 9 . . . . .         + + + + + + + + + + + + + + + + + + + + + + + + + + + +     ",
"    . . . . . . . . . . . . . . 8 * * * * * * * 9 . . . . .         + + + + + + + + + + + + + + + + + + + + + + + + + + + +     ",
"    . . . . . . . . . . . . . . 8 * * * * * * * 9 . . . . .         + + + + + + + + + + + + + + + + + + + + + + + + + + + +     ",
"    . . . . . . . . . . . . . . 8 * * * * * * * 9 . . . . .         + + + + + + + + + + + + + + + + + + + + + + + + + + + +     ",
"    . . . . . . . . . . . . . . 8 * * * * * * * 9 . . . . .         + + + + + + + + + + + + + + + + + + + + + + + + + + + +     ",
"    . . . . . . . . . . . . . . 8 * * * * * * * 9 . . . . .         + + + + + + + + + + + + + + + + + + + + + + + + + + + +     ",
"    . . . . . . . . . . . . . . 8 * * * * * * * 9 . . . . .         + + + + + + + + + + + + + + + + + + + + + + + + + + + +     ",
"    . . . . . . . . . . . . . . 8 * * * * * * * 9 . . . . .         + + + + + + + + + + + + + + + + + + + + + + + + + + + +     ",
"    . . . . . . . . . . . . . . 8 * * * * * * * 9 . . . . .         + + + + + + + + + + + + + + + + + + + + + + + + + + + +     ",
"    . . . . . . . . . . . . . . 8 * * * * * * * 9 . . . . .         + + + + + + + + + + + + + + + + + + + + + + + + + + + +     ",
"    . . . . . . . . . . . . . . 8 * * * * * * * 9 . . . . .         + + + + + + + + + + + + + + + + + + + + + + + + + + + +     ",
"    . . . . . . . . . . . . . . 8 * * * * * * * 9 . . . . .         + + + + + + + + + + + + + + + + + + + + + + + + + + + +     ",
"    . . . . . . . . . . . . . . 8 * * * * * * * 9 . . . . .         + + + + + + + + + + + + + + + + + + + + + + + + + + + +     ",
"    . . . . . . . . . . . . . . 8 * * * * * * * 9 . . . . .         + + + + + + + + + + + + + + + + + + + + + + + + + + + +     ",
"    . . . . . . . . . . . . . . 0 * * * * * * * a . . . . .         + + + + + + + + + + + + + + + + + + + + + + + + + + + +     ",
"                                b * * * * * * *                                                                                 ",
"                                * * * * * * * *                                                                                 ",
"                                * * * * * * * *                                                                                 ",
"                                c * * * * * * *                                                                                 ",
"    d d d d d d d d d d d d d d e * * * * * * * f d d d d d         g g g g g g g g g g g g g g g g g g g g g g g g g g g g     ",
"    d d d d d d d d d d d d d d h * * * * * * * i d d d d d         g g g g g g g g g g g g g g g g g g g g g g g g g g g g     ",
"    d d d d d d d d d d d d d d h * * * * * * * i d d d d d         g g g g g g g g g g g g g g g g g g g g g g g g g g g g     ",
"    d d d d d d d d d d d d d d h * * * * * * * i d d d d d         g g g g g g g g g g g g g g g j k l l m g g g g g g g g     ",
"    d d d d d d d d d d d d d d h * * * * * * * i d d d d d         g g g g g g g g g g g g g g g n o p p q g g g g g g g g     ",
"    d d d d d d d d d d d d d d h * * * * * * * i d d d d d         g g g g g g g g g g g g g g g r s * * t g g g g g g g g     ",
"    d d d d d d d d d d d d d d h * * * * * * * i d d d d d         g g g g g g g g g g g g g g g u v * * w g g g g g g g g     ",
"    d d d d d d d d d d d d d d h * * * * * * * i d d d d d         g g g g g g g g g g g g g g j x * * * y g g g g g g g g     ",
"    d d d d d d d d d d d d d d h * * * * * * * i d d d d d         g g g g g g g g g g g g g g z A * * v B g g g g g g g g     ",
"    d d d d d d d d d d d d d d h * * * * * * * i d d d d d         g g g g g g g g g g g g g g C D * * D E g g g g g g g g     ",
"    d d d d d d d d d d d d d d h * * * * * * * i d d d d d         g g g g g g g g g g g g g F G * * * H I g g g g g g g g     ",
"    d d d d d d d d d d d d d d h * * * * * * * i d d d d d         g g g g g g g g g g g g g J K * * * L M g g g g g g g g     ",
"    d d d d d d d d d d d d d d h * * * * * * * i d d d d d         g g g g g g g g g g g g g N * * * * O P g g g g g g g g     ",
"    d d d d d d d d d d d d d d h * * * * * * * i d d d d d         g g g g g g g g g g g g Q R * * * * S T g g g g g g g g     ",
"    d d d d d d d d d d d d d d h * * * * * * * i d d d d d         g g g g g g g g g g g U V * * * * * W X g g g g g g g g     ",
"    d d d d d d d d d d d d d d h * * * * * * * i d d d d d         g g g g g g g g g g Y Z ` * * * * *  .g g g g g g g g g     ",
"    d d d d d d d d d d d d d ..+.* * * * * * * @.d d d d d         g g g g g g g g j #.$.p * * * * * * %.g g g g g g g g g     ",
"    d d d d d d d d d d d d d &.*.* * * * * * * =.-.d d d d         g g g g g g P ;.>.,.* * * * * * * * '.g g g g g g g g g     ",
"    d d d d d d ).!.~.{.].^./.(.c * * * * * * * _.:.<.[.}.|.        1.2.3.4.t 5.6.7.* * * * * * * * * * 8.g g g g g g g g g     ",
"    d d d d d 9.0.a.a.b.c.*._.* * * * * * * * * * * d.e.f.g.c * * v 7.h.i.j.v * * * * * * * * * * * * * k.g g g g g g g g g     ",
"    d d d d d 9.l.* * * * * * * * * * * * * * * * * * * * * * * * * * * * * * * * * * * * * * * * * * j.B g g g g g g g g g     ",
"    d d d d d 9.m.n.n.n.n.n.n.n.n.n.n.n.n.n.n.n.n.n.n.n.n.o.* * * * p.q.q.q.q.q.q.q.q.q.q.q.q.q.q.q.q.r.s.g g g g g g g g g     ",
"    d d d d d t.^.u.u.u.u.u.u.u.u.u.u.u.u.u.u.u.u.u.u.u.u.v.        w.x.x.x.x.x.x.x.x.x.x.x.x.x.x.x.x.y.T g g g g g g g g g     ",
"    d d d d d d d d d d d d d d d d d d d d d d d d d d d d         g g g g g g g g g g g g g g g g g g g g g g g g g g g g     ",
"    d d d d d d d d d d d d d d d d d d d d d d d d d d d d         g g g g g g g g g g g g g g g g g g g g g g g g g g g g     ",
"    d d d d d d d d d d d d d d d d d d d d d d d d d d d d         g g g g g g g g g g g g g g g g g g g g g g g g g g g g     ",
"    d d d d d d d d d d d d d d d d d d d d d d d d d d d d         g g g g g g g g g g g g g g g g g g g g g g g g g g g g     ",
"    d d d d d d d d d d d d d d d d d d d d d d d d d d d d         g g g g g g g g g g g g g g g g g g g g g g g g g g g g     ",
"                                                                                                                                ",
"                                                                                                                                "};
